<svg width="200" height="200" viewBox="0 0 200 200" fill="none" xmlns="http://www.w3.org/2000/svg">
<rect width="200" height="200" fill="#171717"/>
<path d="M96.25 175V155.35C86.85 154.55 79.45 151.55 74.05 146.35C68.75 141.05 66 134.1 65.8 125.5H79.3C79.3 130.4 80.75 134.4 83.65 137.5C86.65 140.6 90.85 142.5 96.25 143.2V103.9L92.2 102.7C84.7 100.4 78.9 96.55 74.8 91.15C70.8 85.75 68.8 79.4 68.8 72.1C68.8 64.1 71.25 57.5 76.15 52.3C81.15 47.1 87.85 44.1 96.25 43.3V23.5H105.25V43.15C113.55 43.95 120.2 46.95 125.2 52.15C130.2 57.35 132.75 64.05 132.85 72.25H119.35C119.35 67.55 118.1 63.75 115.6 60.85C113.2 57.85 109.75 56 105.25 55.3V92.5L111.25 94.45C118.55 96.75 124.2 100.65 128.2 106.15C132.2 111.65 134.2 118.1 134.2 125.5C134.2 133.7 131.55 140.5 126.25 145.9C121.05 151.3 114.05 154.45 105.25 155.35V175H96.25ZM105.25 143.2C110.15 142.4 113.95 140.5 116.65 137.5C119.35 134.5 120.7 130.6 120.7 125.8C120.7 121.4 119.5 117.55 117.1 114.25C114.8 110.95 111.45 108.65 107.05 107.35L105.25 106.75V143.2ZM96.25 95.65V55.3C91.85 56 88.4 57.7 85.9 60.4C83.5 63.1 82.3 66.6 82.3 70.9C82.3 76.1 83.9 80.5 87.1 84.1C90.3 87.6 94.9 89.8 100.9 90.7L96.25 95.65Z" fill="white"/>
</svg>